# xmcd
#
# Track frame offsets: 
#        150
#        20989
#        41817
#        54994
#        74012
#        91324
#        102697
#        120132
#        139954
#        160476
#        171238
#        191580
#
# Disc length: 2712 seconds
#
# Revision: 3
# Processed by: cddbd v1.5.2PL0 Copyright (c) Steve Scherf et al.
# Submitted via: ExactAudioCopyFreeDBPlugin 1.0
#
DISCID=b20a960c
DTITLE=Aldo Romano - Just Jazz
DYEAR=2008
DGENRE=Jazz
TTITLE0=Cité soleil
TTITLE1=Prego
TTITLE2=Spring Tide
TTITLE3=Handle with care
TTITLE4=Blues for Roy
TTITLE5=Chick Webb
TTITLE6=Libero
TTITLE7=Black and blue
TTITLE8=Dany K.
TTITLE9=Township
TTITLE10=Lontananza
TTITLE11=Maple Leaf Rag
EXTD=YEAR: 2008
EXTT0=
EXTT1=
EXTT2=
EXTT3=
EXTT4=
EXTT5=
EXTT6=
EXTT7=
EXTT8=
EXTT9=
EXTT10=
EXTT11=
PLAYORDER=
